<svg id="Capa_1" data-name="Capa 1" xmlns="http://www.w3.org/2000/svg" viewBox="0 0 413.44879 511.99997"><defs><style>.cls-1{fill:#fff}</style></defs><title>logic</title><path id="_Compound_Path_" data-name="&lt;Compound Path&gt;" class="cls-1" d="M197.23 340.042v18.227a30.334 30.334 0 0 0 7.477 19.968v65.161a27.376 27.376 0 0 0 27.347 27.345h47.897a27.376 27.376 0 0 0 27.345-27.345v-65.16a30.33 30.33 0 0 0 7.477-19.968v-18.226a137.746 137.746 0 0 0 79.445-125.126c0-76.212-62.003-138.214-138.216-138.214-76.211 0-138.215 62.002-138.215 138.214a137.739 137.739 0 0 0 79.443 125.124zm89.496 103.355a6.866 6.866 0 0 1-6.775 6.775h-47.897a6.867 6.867 0 0 1-6.777-6.775v-13.664h34.059a10.285 10.285 0 1 0 0-20.57h-34.059V388.63q1.193.095 2.41.095h56.63q1.217 0 2.41-.095zM256.001 97.272a117.66 117.66 0 0 1 44.585 226.541 10.284 10.284 0 0 0-6.384 9.517v24.939a9.897 9.897 0 0 1-9.886 9.886h-56.63a9.898 9.898 0 0 1-9.887-9.886v-24.94a10.287 10.287 0 0 0-6.384-9.517 117.66 117.66 0 0 1 44.586-226.54zm-10.288-58.47V10.285a10.285 10.285 0 1 1 20.57 0v28.517a10.285 10.285 0 1 1-20.57 0zm.003 95.016a10.284 10.284 0 0 1 10.285-10.285A96.707 96.707 0 0 1 352.6 220.13a10.285 10.285 0 0 1-20.57 0 76.114 76.114 0 0 0-76.028-76.027 10.286 10.286 0 0 1-10.285-10.285zm156.46-73.273a10.284 10.284 0 0 1 0 14.545L383.2 94.065a10.284 10.284 0 1 1-14.544-14.545l18.975-18.975a10.284 10.284 0 0 1 14.543 0zm60.548 146.177a10.284 10.284 0 0 1-10.284 10.285h-22.71a10.285 10.285 0 0 1 0-20.57h22.71a10.286 10.286 0 0 1 10.284 10.285zM394.557 470.25c0 14.2-14.851 24.745-45.403 32.239-25.006 6.134-58.086 9.512-93.15 9.512-37.164 0-72.905-3.93-98.058-10.782-27.252-7.424-40.5-17.554-40.5-30.97 0-15.807 18.343-27.12 56.075-34.586a10.285 10.285 0 1 1 3.992 20.178c-26.325 5.21-36.574 11.628-39.07 14.376 1.593 1.717 7.264 6.35 24.91 11.156 23.465 6.392 57.234 10.058 92.65 10.058 30.921 0 60.526-2.764 83.364-7.785 24.987-5.493 32.338-11.435 34.192-13.43-2.5-2.75-12.749-9.166-39.072-14.375a10.285 10.285 0 0 1 3.993-20.178c37.734 7.466 56.077 18.78 56.077 34.587zM128.8 94.07l-18.976-18.977a10.285 10.285 0 0 1 14.545-14.545l18.976 18.975A10.285 10.285 0 0 1 128.8 94.068zM92.559 206.721a10.284 10.284 0 0 1-10.285 10.285H59.56a10.285 10.285 0 1 1 0-20.57h22.713a10.285 10.285 0 0 1 10.286 10.285z" transform="translate(-49.276)"/></svg>