<svg id="Capa_1" data-name="Capa 1" xmlns="http://www.w3.org/2000/svg" viewBox="0 0 511.99996 510.55273"><defs><style>.cls-1{fill:#fff}</style></defs><title>math</title><path class="cls-1" d="M445.211.725H66.788A66.866 66.866 0 0 0 0 67.514V444.49a66.865 66.865 0 0 0 66.788 66.788H445.21A66.866 66.866 0 0 0 512 444.49V67.514A66.864 66.864 0 0 0 445.211.724zm40.074 66.789v175.13H269.36V27.441h175.85a40.118 40.118 0 0 1 40.074 40.073zM66.788 27.44h175.855v215.203H26.718V67.514a40.114 40.114 0 0 1 40.07-40.073zm-40.07 417.048v-175.13h215.926v215.203H66.788a40.114 40.114 0 0 1-40.07-40.073zm418.493 40.073H269.36V269.359h215.927v175.13a40.12 40.12 0 0 1-40.076 40.073z" transform="translate(0 -.725)"/><path class="cls-1" d="M313.956 154.156h47.824v47.818a13.358 13.358 0 0 0 26.716 0v-47.822h47.822a13.357 13.357 0 1 0 0-26.715h-47.822v-47.82a13.358 13.358 0 1 0-26.716 0v47.823h-47.825a13.358 13.358 0 0 0 0 26.716zM76.3 201.223a13.353 13.353 0 0 0 18.89 0l41.546-41.543 41.546 41.547a13.357 13.357 0 0 0 18.889-18.889l-41.546-41.544 41.546-41.538a13.356 13.356 0 0 0-18.888-18.889l-41.546 41.54-41.536-41.541a13.357 13.357 0 0 0-18.889 18.889l41.537 41.538-41.547 41.54a13.353 13.353 0 0 0-.003 18.89zm110.448 164.231l-100.014.003a13.359 13.359 0 0 0 0 26.717l100.014-.005a13.357 13.357 0 0 0 0-26.715zm238.402 28.378l-100.026.005a13.357 13.357 0 0 0 0 26.714l100.026-.002a13.359 13.359 0 1 0 0-26.717zm0-56.762l-100.026.003a13.359 13.359 0 0 0 0 26.717l100.026-.005a13.357 13.357 0 1 0 0-26.715z" transform="translate(0 -.725)"/></svg>