<svg id="Capa_1" data-name="Capa 1" xmlns="http://www.w3.org/2000/svg" viewBox="0 0 512.00002 500.22067"><defs><style>.cls-1{fill:#fff}</style></defs><title>speech</title><path class="cls-1" d="M435.665 66.277C387.512 27.337 323.706 5.89 256 5.89S124.488 27.337 76.335 66.278C27.11 106.088 0 159.34 0 216.225c0 56.888 27.11 110.142 76.335 149.949 48.153 38.943 111.959 60.39 179.665 60.39 6.893 0 13.839-.23 20.75-.687l43.605 71.904a17.316 17.316 0 0 0 14.39 8.328c.135.003.265.003.402.003a17.303 17.303 0 0 0 14.358-7.652l92.319-137.452C487.113 321.804 512 270.544 512 216.228c0-56.89-27.108-110.142-76.335-149.951zm-19.259 270.93l-80.516 119.47-35.111-57.897a17.298 17.298 0 0 0-14.788-8.328q-.87 0-1.747.086a281.389 281.389 0 0 1-28.247 1.424c-122.083 0-221.403-78.838-221.403-175.74 0-96.902 99.32-175.739 221.403-175.739s221.404 78.837 221.404 175.738c.003 45.168-21.66 88.132-60.995 120.986z" transform="translate(0 -5.891)"/></svg>